<?xml version="1.0" encoding="utf-8"?><!DOCTYPE svg PUBLIC "-//W3C//DTD SVG 1.1//EN" "http://www.w3.org/Graphics/SVG/1.1/DTD/svg11.dtd"><svg version="1.1" xmlns="http://www.w3.org/2000/svg" xmlns:xlink="http://www.w3.org/1999/xlink" width="24" height="24" viewBox="0 0 24 24" data-code="58694" data-tags="local_gas_station"><g fill="#444" transform="scale(0.0234375 0.0234375)"><path d="M768 426c24 0 42-18 42-42s-18-42-42-42-42 18-42 42 18 42 42 42zM512 426v-212h-256v212h256zM844 308c20 20 30 46 30 76v406c0 58-48 106-106 106s-106-48-106-106v-214h-64v320h-428v-682c0-46 40-86 86-86h256c46 0 86 40 86 86v298h42c46 0 86 40 86 86v192c0 24 18 42 42 42s42-18 42-42v-308c-14 6-26 8-42 8-58 0-106-48-106-106 0-46 28-84 68-100l-90-90 46-44z" /></g></svg>